#!OML:ASF F:\VICON\USERDATA\INSTALL\rory3\rory3.ASF
:FULLY-SPECIFIED
:DEGREES
127
root 0.8948137031792853 17.948238702778188 36.72026004810869 -2.8444877902267947 -1.685761636948162 -1.9306667762772294
lfemur 3.1098025693161375 -3.085364293419618 -20.162377262831924
ltibia 47.29801651072789
lfoot -14.617143560793155 -1.0323706610931205
ltoes -14.792394834930494
rfemur -5.360648033465069 4.477292961543432 25.926878007349814
rtibia 33.75430472084876
rfoot -19.23465938879658 -9.986310578121824
rtoes -7.764287351012707
lowerback 8.862281344008212 -0.3487484128427042 1.7773512620066636
upperback -0.14054458034242961 -0.16397745085665616 1.7225374775256568
thorax -5.26607429393953 -0.09407249442145488 1.477636926166811
lowerneck -16.169233654834727 -2.89322652018218 -1.7344863388058187
upperneck 22.005277446673205 -3.652850990130655 0.09338765989180653
head 9.743098180477977 -1.8141930438223142 -0.1578033174657429
lclavicle -3.6163629442579004e-16 5.803562888361138e-16
lhumerus -28.442092699523563 3.1362233056070177 80.0995994553859
lradius 23.521741348712933
lwrist 7.8139937358855995
lhand -27.966934394263017 19.269134268808912
lfingers 7.12502
lthumb -1.5299954008313235 49.11451933225511
rclavicle -3.616362943269439e-16 5.803562889026439e-16
rhumerus -29.252698180344925 -17.263852857838152 -75.76003018522037
rradius 33.14154702035408
rwrist 2.6549437080708858
rhand -18.033354171032983 21.71278419069153
rfingers 7.12502
rthumb 8.489629210174641 -6.481796747996795
128
root 0.9012641458994899 17.935068021635747 37.43873004324347 -3.091190040026208 -1.5100403161806206 -1.7815217257992775
lfemur 2.38707605463323 -2.976196513070116 -20.171369908186765
ltibia 48.14994986039926
lfoot -14.579364936945906 -1.0696626819034725
ltoes -12.896771776886549
rfemur -5.315712291044227 4.130023674477528 25.515803447218975
rtibia 35.39414691613115
rfoot -19.752591333597493 -10.379299638535368
rtoes -8.266904817778737
lowerback 8.98901572044586 -0.31167868053428427 1.6759954264415826
upperback -0.07590127304238975 -0.13965904094964554 1.6983029919483394
thorax -5.212871639615854 -0.06538589926856175 1.500893188298178
lowerneck -16.188970404972622 -2.8933002575891575 -1.7459138477645024
upperneck 21.954518462845268 -3.6526770082140714 0.10971486316313839
head 9.726625987892263 -1.8157112507912894 -0.15016410250677104
lclavicle -3.6163629442824443e-16 5.803562888346576e-16
lhumerus -29.058624333673595 2.991529455190381 80.03995601318681
lradius 22.808349250763648
lwrist 8.076451478182898
lhand -28.221595419704837 19.109217439437252
lfingers 7.12502
lthumb -1.7899100673924098 48.9739901522564
rclavicle -3.6163629432870074e-16 5.803562889016289e-16
rhumerus -29.241539128310052 -17.486072466592027 -76.317487578276
rradius 33.175117716213585
rwrist 2.8673840352708746
rhand -18.085787999490357 21.50431813048087
rfingers 7.12502
rthumb 8.434200952641646 -6.673755348370426
129
root 0.9092854897059192 17.916991717592616 38.09562616666595 -3.415969432686058 -1.3685845732338577 -1.5169898909212103
lfemur 2.289306954862253 -2.839696655446577 -20.17214837699541
ltibia 48.9454460560104
lfoot -14.463593045369176 -1.2017910732968629
ltoes -7.1163569113881024
rfemur -5.458240019764065 3.782664010698006 24.951574058622647
rtibia 37.228046922371895
rfoot -20.453922376076708 -10.82835381029944
rtoes -8.45601288073868
lowerback 9.118859896448646 -0.2985148116832239 1.4655089953023641
upperback 0.02315877004686087 -0.17899275733751174 1.6477551944369688
thorax -5.1288400955822055 -0.06236560762036375 1.543632531968826
lowerneck -16.243713972631852 -2.897034164777948 -1.7614532427956902
upperneck 21.814028188518062 -3.665226315403302 0.1712139265357036
head 9.664215136322804 -1.8229747759229207 -0.12415735944653339
lclavicle -3.616362944215967e-16 5.803562888393075e-16
lhumerus -28.924337938212624 3.632380862348156 80.17838685342795
lradius 22.188358330126945
lwrist 8.3434923881296
lhand -28.357196156755972 18.911077631763774
lfingers 7.12502
lthumb -1.9930784873096705 48.64111877663513
rclavicle -3.616362943276146e-16 5.803562889025939e-16
rhumerus -29.337325675967694 -17.639499856848147 -76.6170646199969
rradius 33.16061959874722
rwrist 2.683158513109847
rhand -18.049150116240263 21.506161642235412
rfingers 7.12502
rthumb 8.394398225368322 -6.9097734188580455
130
root 0.9039563687248355 17.89869460053545 38.80404778264887 -3.7363540084542075 -1.2782835908678032 -1.194774349734784
lfemur 2.141304251519818 -2.7350979610016664 -20.35287453937604
ltibia 49.71665097069341
lfoot -14.392945956280379 -1.557673685540792
ltoes -6.12139197495702
rfemur -5.785933883502136 3.489539551291327 24.342880653605302
rtibia 38.84544178612676
rfoot -21.195950293336942 -11.272435206944477
rtoes -8.2622100599129
lowerback 9.248975165999237 -0.27002387469347067 1.190747221873753
upperback 0.09443647756337958 -0.19720434171953438 1.583871382600777
thorax -5.082246331290423 -0.04081385305415358 1.5715143019984952
lowerneck -16.269063521405243 -2.8884102364729163 -1.7414964232353547
upperneck 21.62855758360649 -3.653265126429155 0.24027227028777443
head 9.5879024116235 -1.8182884977581637 -0.08827218611376464
lclavicle -3.616362944145183e-16 5.803562888442982e-16
lhumerus -29.578407480747675 3.6775707996253577 80.09700235539935
lradius 21.58117938328548
lwrist 8.59930854877483
lhand -28.50517672124153 19.322791236368598
lfingers 7.12502
lthumb -2.2193887957772995 48.93136426505979
rclavicle -3.616362943337498e-16 5.803562888987587e-16
rhumerus -29.499998594430195 -17.99047208519018 -76.81043866964944
rradius 33.11225737514157
rwrist 2.870100495226195
rhand -18.078110209218277 21.350694486967278
rfingers 7.12502
rthumb 8.410412005218046 -7.034332042897096
